HIERARCHY
ROOT root
{
	OFFSET 0.000000 0.000000 0.000000
	CHANNELS 6 Xposition Yposition Zposition Zrotation Yrotation Xrotation
	JOINT lhip
	{
		OFFSET 0.058581 -0.082280 -0.017664
		CHANNELS 3 Zrotation Yrotation Xrotation
		JOINT lknee
		{
			OFFSET 0.043451 -0.386469 0.008037
			CHANNELS 3 Zrotation Yrotation Xrotation
			JOINT lankle
			{
				OFFSET -0.014790 -0.426874 -0.037428
				CHANNELS 3 Zrotation Yrotation Xrotation
				JOINT ltoe
				{
					OFFSET 0.041054 -0.060286 0.122042
					CHANNELS 3 Zrotation Yrotation Xrotation
					End Site
					{
						OFFSET 0.000000 0.000000 0.000000
					}
				}
			}
		}
	}
	JOINT rhip
	{
		OFFSET -0.060310 -0.090513 -0.013543
		CHANNELS 3 Zrotation Yrotation Xrotation
		JOINT rknee
		{
			OFFSET -0.043257 -0.383688 -0.004843
			CHANNELS 3 Zrotation Yrotation Xrotation
			JOINT rankle
			{
				OFFSET 0.019056 -0.420046 -0.034562
				CHANNELS 3 Zrotation Yrotation Xrotation
				JOINT rtoe
				{
					OFFSET -0.034840 -0.062106 0.130323
					CHANNELS 3 Zrotation Yrotation Xrotation
					End Site
					{
						OFFSET 0.000000 0.000000 0.000000
					}
				}
			}
		}
	}
	JOINT lowerback
	{
		OFFSET 0.004439 0.124404 -0.038385
		CHANNELS 3 Zrotation Yrotation Xrotation
		JOINT upperback
		{
			OFFSET 0.004488 0.137956 0.026820
			CHANNELS 3 Zrotation Yrotation Xrotation
			JOINT chest
			{
				OFFSET -0.002265 0.056032 0.002855
				CHANNELS 3 Zrotation Yrotation Xrotation
				JOINT lowerneck
				{
					OFFSET -0.013390 0.211636 -0.033468
					CHANNELS 3 Zrotation Yrotation Xrotation
					JOINT upperneck
					{
						OFFSET 0.010113 0.088937 0.050410
						CHANNELS 3 Zrotation Yrotation Xrotation
						End Site
						{
							OFFSET 0.000000 0.000000 0.000000
						}
					}
				}
				JOINT lclavicle
				{
					OFFSET 0.071702 0.114000 -0.018898
					CHANNELS 3 Zrotation Yrotation Xrotation
					JOINT lshoulder
					{
						OFFSET 0.122921 0.045205 -0.019046
						CHANNELS 3 Zrotation Yrotation Xrotation
						JOINT lelbow
						{
							OFFSET 0.255332 -0.015649 -0.022946
							CHANNELS 3 Zrotation Yrotation Xrotation
							JOINT lwrist
							{
								OFFSET 0.265709 0.012698 -0.007375
								CHANNELS 3 Zrotation Yrotation Xrotation
								End Site
								{
									OFFSET 0.000000 0.000000 0.000000
								}
							}
						}
					}
				}
				JOINT rclavicle
				{
					OFFSET -0.082954 0.112472 -0.023707
					CHANNELS 3 Zrotation Yrotation Xrotation
					JOINT rshoulder
					{
						OFFSET -0.113228 0.046853 -0.008472
						CHANNELS 3 Zrotation Yrotation Xrotation
						JOINT relbow
						{
							OFFSET -0.260127 -0.014369 -0.031269
							CHANNELS 3 Zrotation Yrotation Xrotation
							JOINT rwrist
							{
								OFFSET -0.269108 0.006794 -0.006027
								CHANNELS 3 Zrotation Yrotation Xrotation
								End Site
								{
									OFFSET 0.000000 0.000000 0.000000
								}
							}
						}
					}
				}
			}
		}
	}
}
MOTION
Frames: 14
Frame Time: 0.033333
-0.578015 1.684951 0.947537 -15.746617 4.805659 95.976363 -4.633867 3.623186 -4.193511 -8.511698 13.860880 45.911964 3.122304 14.198306 -21.562764 0.000000 -0.000000 0.000000 -10.889392 7.061286 -35.944000 1.883081 0.009611 33.904270 -0.931543 -5.057618 -8.012439 0.000000 -0.000000 0.000000 4.826087 -11.719088 11.898178 5.526473 -9.217447 7.197730 0.799381 -1.902726 -8.285066 -5.380464 20.286984 -7.085488 -2.490725 17.995652 -7.439777 -16.803438 -15.845060 0.237355 -56.176566 -18.850635 26.546112 0.123770 -71.492930 25.611285 -5.621528 -17.392695 7.219093 18.890119 10.773501 0.132526 55.733663 4.019962 17.772770 0.303782 71.071189 8.106656 5.117264 16.136870 -7.845994 
-0.585904 1.650126 0.936144 -17.186118 4.112442 96.348513 -1.123017 6.725492 -8.492449 -6.350193 17.997239 58.304840 2.182202 15.145417 -20.860360 0.000000 -0.000000 0.000000 -13.454296 6.657603 -35.117807 3.264538 1.413379 35.555205 1.387384 -2.946635 -11.159750 0.000000 -0.000000 0.000000 5.659843 -12.240116 13.189544 5.666781 -9.850533 7.558606 0.945356 -1.890140 -7.829950 -5.659993 22.164168 -4.299120 -4.374010 18.456721 -10.001794 -16.739236 -15.597476 1.702369 -53.986334 -17.185048 23.473158 1.377589 -62.791432 23.087188 -6.517145 -16.510621 6.553522 19.243793 11.312415 2.218910 53.368928 4.838269 14.874093 -3.420475 60.886386 4.060379 5.033073 15.058209 -5.938404 
-0.594753 1.616574 0.914356 -19.719085 3.448007 96.685302 3.165353 10.014196 -12.323749 -5.748073 19.597225 69.834346 1.248178 14.541267 -21.586197 0.000000 -0.000000 0.000000 -14.967692 4.594936 -35.989781 6.233637 2.141675 39.770578 0.688076 -1.250924 -18.657649 0.000000 -0.000000 0.000000 5.978509 -11.956691 15.149854 5.502962 -9.725122 7.235352 0.946808 -1.923569 -6.798719 -5.677524 23.629595 -2.360983 -6.250580 18.691027 -11.715118 -16.741227 -13.380792 2.720782 -50.863820 -14.066441 19.554011 1.982191 -54.817850 19.450405 -4.655905 -15.962021 4.618009 20.031379 11.311181 3.762726 49.835385 5.955054 11.870670 -3.765800 50.242043 2.184887 3.472086 14.293534 -4.175132 
-0.600380 1.585277 0.889262 -23.912543 2.488650 96.741887 7.463053 12.981257 -15.393864 -8.209782 19.718057 78.560288 0.208417 11.736486 -22.850164 0.000000 -0.000000 0.000000 -16.432461 1.846164 -39.142834 9.059667 2.198667 46.605977 -0.619000 0.335228 -23.377043 0.000000 -0.000000 0.000000 5.252771 -11.072839 18.423840 4.754882 -8.166165 7.174365 0.668437 -1.346473 -5.604278 -5.536392 24.786569 -1.679654 -8.175777 17.777518 -13.196396 -16.624241 -10.151830 2.902802 -47.121136 -10.343422 15.446384 2.706354 -45.448023 12.673533 -0.772797 -15.143084 1.586997 21.206432 10.818577 5.767921 44.777987 6.592543 7.803753 -3.000186 40.360813 0.204624 0.769806 13.719228 -2.215212 
-0.603254 1.549601 0.866674 -26.234227 1.334360 96.031818 12.073748 13.880726 -17.306463 -11.149145 18.105277 84.135883 -0.784099 11.487203 -23.653303 0.000000 -0.000000 0.000000 -18.808471 -0.794634 -39.985103 11.682358 1.772898 52.022197 -1.470322 0.747748 -27.228276 0.000000 -0.000000 0.000000 4.535482 -10.176993 22.114268 3.913235 -6.963340 8.268002 0.318347 -0.729824 -4.779273 -6.391509 24.849696 -0.734820 -9.295992 16.553868 -15.915281 -17.530296 -7.392636 3.461883 -41.345697 -7.012425 10.541189 0.811873 -34.123570 4.134461 3.941642 -14.538668 -3.074333 22.167388 10.112342 8.261625 38.635692 5.059092 2.857871 -0.748495 31.145509 -1.516231 -2.058031 13.220975 -0.732415 
-0.602425 1.510978 0.850270 -27.102158 -0.189390 95.816448 16.273930 14.213376 -20.077303 -12.120343 15.511781 87.525490 -1.369656 13.349082 -23.067204 0.000000 -0.000000 0.000000 -21.316039 -3.780718 -39.354543 12.948687 2.208011 55.360751 -1.950857 0.648867 -30.887820 0.000000 -0.000000 0.000000 3.700932 -8.586348 25.158835 3.160507 -6.112963 9.350093 -0.009935 -0.388917 -4.167657 -7.637603 24.434153 0.434419 -9.482056 14.576614 -18.914275 -18.074805 -4.796004 3.825716 -34.973550 -3.426298 5.361863 -3.329429 -21.388867 -3.040567 5.009457 -13.940517 -4.662038 23.118606 8.828033 10.649113 33.195753 0.966068 -0.820669 2.435260 22.383159 -0.159819 -2.722814 12.939767 3.622658 
-0.597201 1.472223 0.841642 -27.309809 -1.302457 96.392816 20.456653 15.838902 -24.346571 -12.017404 12.540345 88.393928 -1.680307 15.134173 -22.765277 0.000000 -0.000000 0.000000 -23.542848 -6.011215 -38.067968 13.715031 3.515192 56.400717 -1.176256 0.663082 -33.415210 0.000000 -0.000000 0.000000 2.458357 -6.483763 28.320970 2.458180 -4.593537 8.664284 0.243590 -0.202148 -3.228545 -8.993754 24.643845 1.585311 -9.072604 11.750194 -22.097850 -18.378989 -1.986586 4.038734 -28.617329 1.905601 0.394337 -6.937625 -10.358713 -6.697805 4.170061 -14.403469 -0.134779 24.176132 6.976646 13.137362 29.504200 -5.345071 -3.005010 6.333394 14.871850 5.803978 -1.318588 12.989721 9.995579 
-0.586879 1.430387 0.840971 -25.816611 -2.142498 96.433050 23.706500 17.934739 -29.622860 -12.395276 9.869028 85.589995 -1.204476 16.478019 -23.589309 0.000000 -0.000000 0.000000 -25.644353 -8.448270 -34.175591 13.560618 5.016906 55.084311 0.362954 0.813072 -34.719769 0.000000 -0.000000 0.000000 1.555247 -3.805885 30.667753 1.770351 -4.132286 9.748059 0.358727 -0.389337 -2.934986 -9.556620 25.931145 2.373094 -8.883626 7.914476 -24.451814 -17.721866 0.913209 3.832011 -22.839968 8.582199 -4.290821 -9.577924 -2.069318 -8.514639 1.612520 -14.916899 8.113036 24.824362 5.348058 15.446503 28.849717 -12.301319 -2.948067 10.544885 9.699825 15.739622 2.389269 12.856089 17.316857 
-0.572459 1.384503 0.846277 -22.925121 -2.684673 96.635430 25.365301 20.594215 -36.060915 -13.278954 8.359968 78.337203 -0.945094 16.580306 -23.526162 0.000000 -0.000000 0.000000 -28.144325 -11.319565 -28.915694 12.796620 5.216961 52.370033 2.741543 1.124976 -33.461034 0.000000 -0.000000 0.000000 0.898791 -1.065892 32.050022 0.809337 -4.002115 9.353658 0.291128 -0.832759 -1.776858 -9.200798 27.452702 4.013320 -8.799723 4.424635 -26.484323 -16.241848 4.423312 3.622132 -17.824525 17.094812 -7.633452 -11.342161 1.940065 -8.210493 -2.200077 -14.668255 14.946820 24.185703 3.451154 17.010794 30.927631 -19.686664 -1.625018 15.851953 8.272726 29.489201 7.529745 11.132128 24.097965 
-0.554558 1.333416 0.853653 -19.383848 -2.313972 96.889675 26.001816 23.503462 -42.001750 -13.340643 8.279477 66.790433 -1.525154 15.231529 -19.179521 0.000000 -0.000000 0.000000 -30.975709 -14.091925 -23.493436 12.558466 4.729538 50.519957 6.169136 3.303803 -27.615929 0.000000 -0.000000 0.000000 1.053107 1.658064 31.383478 -0.425971 -3.508015 8.652550 -0.133125 -0.744969 -0.407816 -8.343809 28.429193 7.202246 -9.206133 1.005585 -29.387972 -13.362043 7.699961 3.551288 -14.707479 26.111590 -8.464035 -11.640563 3.053489 -6.303702 -5.914838 -13.609625 17.486315 21.557626 1.418769 17.573093 33.889386 -27.947280 -0.223286 23.066847 8.510944 41.752108 13.419985 8.943434 25.270408 
-0.534024 1.275655 0.859179 -14.614867 -0.844795 96.877217 25.801805 25.303392 -46.664959 -11.186048 10.833645 51.993184 -1.761943 14.079223 -8.440845 0.000000 -0.000000 0.000000 -33.699841 -16.103995 -17.815284 12.212770 4.180371 50.776514 11.084565 5.922719 -16.199361 0.000000 -0.000000 0.000000 2.198145 4.474570 28.731052 -1.179679 -2.742340 8.723435 -0.353602 -0.183014 0.499286 -7.435823 28.177960 10.265061 -9.374964 -3.255208 -32.462601 -9.030268 9.972929 2.965966 -13.125123 34.058889 -8.574824 -10.584849 4.620568 -4.287528 -9.052021 -12.189409 18.622906 17.713070 -0.982157 18.012484 34.792113 -35.819942 0.201619 30.939796 7.979684 49.726133 20.000652 6.346065 24.518181 
-0.513944 1.210233 0.858890 -8.004387 1.325063 96.634917 23.264608 26.653354 -50.438701 -7.709375 18.586570 36.314678 -1.982267 14.967789 4.964527 0.000000 -0.000000 0.000000 -35.166052 -16.264118 -9.827944 9.256629 4.035970 52.177452 14.280852 4.792270 -5.596449 0.000000 -0.000000 0.000000 3.081187 7.567896 23.989769 -0.994304 -2.105829 10.153398 0.087403 0.347060 0.613463 -4.969118 27.157536 13.147302 -8.995050 -7.552853 -35.178762 -4.186937 12.323435 2.441561 -11.532913 40.434812 -7.946174 -9.694093 4.588237 -1.668296 -12.725320 -11.153760 17.786706 13.811090 -3.068789 18.598394 34.114858 -41.764228 2.915832 35.963716 7.680132 55.348250 24.852540 6.124485 22.648900 
-0.493914 1.139264 0.849563 -0.226113 4.193884 96.118469 16.951392 28.729027 -54.598848 -6.364501 30.303012 25.837802 -1.077157 17.932853 12.119804 0.000000 -0.000000 0.000000 -34.220310 -14.347730 1.156545 7.296326 5.757750 54.979541 14.160308 2.969483 -5.303750 0.000000 -0.000000 0.000000 4.077549 10.658666 18.027235 -0.528603 -1.746010 11.325283 0.609751 0.898885 1.434757 -1.786203 25.527609 15.443895 -8.599431 -10.950452 -36.294392 0.161219 14.391669 2.677183 -11.047816 44.042942 -8.587461 -8.704564 3.950748 0.596682 -16.415621 -9.905517 17.884208 11.198240 -4.219676 18.424798 34.419839 -44.828789 5.558371 36.360163 8.484023 57.309731 27.435308 7.350938 19.568183 
-0.471121 1.064783 0.830137 8.117362 6.795022 95.769923 9.811407 29.160032 -59.167693 -6.863360 36.320540 27.886886 1.802353 18.968889 12.113579 0.000000 -0.000000 0.000000 -32.152258 -12.569263 13.112209 6.142785 6.207106 58.893166 11.760865 0.233993 -9.910347 0.000000 -0.000000 0.000000 4.433141 12.952069 12.052863 -0.174405 -1.283540 11.775610 0.660501 1.357414 1.939388 1.149152 22.107119 16.083574 -8.139900 -13.960253 -35.677687 1.766888 16.320360 2.396662 -10.794471 44.297750 -9.948578 -7.012762 4.104589 -0.222798 -18.134141 -9.209245 19.749468 11.213086 -4.647387 15.530328 36.298940 -44.988851 7.079002 31.742769 8.659466 53.716158 27.132859 8.676768 16.355678 
